# xmcd
#
# Track frame offsets:
#	150
#	11389
#	23518
#	39423
#	50991
#	62401
#	76152
#	88098
#	100479
#	115891
#	126508
#	137763
#
# Disc length: 2003 seconds
#
# Revision: 0
# Processed by: cddbd v1.5.2PL0 Copyright (c) Steve Scherf et al.
# Submitted via: EasyCDDAExtractor 2010.6.0.0
#
DISCID=9907d10c
DTITLE=Various Artist - Grand Ole Opry Live Classics - Country Greats
DYEAR=1900
DGENRE=
TTITLE0=Young Faron - Hello Walls (Live)
TTITLE1=James Sonny - Young Love (Live)
TTITLE2=Robbins Marty - Devil Woman (Live)
TTITLE3=Lynn Loretta - Blue Kentucky Girl (Live)
TTITLE4=Anderson Bill - Bright Lights And Country Music (Live)
TTITLE5=Wynette Tammy - I Don't Wanna Play House (Live)
TTITLE6=Davis Skeeter - End Of The World (Live)
TTITLE7=Locklin Hank - Send Me The Pillow You Dream On (Live)
TTITLE8=Smith Connie - Once A Day (Live)
TTITLE9=Wagoner Porter - Green Green Grass Of Home (Live)
TTITLE10=Browns - Three Bells (Live)
TTITLE11=Miller Roger - Dang Me (Live)
EXTD=
EXTT0=
EXTT1=
EXTT2=
EXTT3=
EXTT4=
EXTT5=
EXTT6=
EXTT7=
EXTT8=
EXTT9=
EXTT10=
EXTT11=
PLAYORDER=
